<svg xmlns="http://www.w3.org/2000/svg" viewBox="0 0 338.2 479.15"><defs><style>.cls-1{fill:#343a40;}</style></defs><title>vestido-formal-v2</title><g id="Capa_2" data-name="Capa 2"><g id="Capa_1-2" data-name="Capa 1"><path class="cls-1" d="M302.05,444.71c6.29-4.84,11.63-5.33,17.92-5.33s9.69-3.39,9.69-10.17,11.62-.49,7.74-9.69S320,384.16,312.22,361.39s-18.88-67.32-28.09-89.11S223.59,160.88,215.85,141s10.34-55.7,10.34-55.7,6.05-33.78,7.14-38c.4-1.54-.94-3.22-2.78-4.74a8,8,0,0,0,3.24-10.24,8.12,8.12,0,0,0,1.72-4.82s0,0,0-.08c6.54-.34,4.17-2.87,12.92-7.91,9.45-5.46.73-4,1.46-9.81S246.6,3.22,244.06.68s-5.45,2.9-5.45,2.9c-14.89-.73-2.54,11.26-9.81,10.2-3.41-.5-4.35,2.53-3.56,5.85a8.24,8.24,0,0,0-6.37,7.94,8.44,8.44,0,0,0,.72,3.34,8.13,8.13,0,0,0-1.71,4.82c0,.06,0,.11,0,.17-1.91-.16-3.91.62-5,4.15,0,0-5.56-3.56-8,2.81,0,0-8-.4-9.2,6.63,0,0-22-.46-26.63,5.77-4.61-6.23-26.64-5.77-26.64-5.77-1.21-7-9.2-6.63-9.2-6.63-2.43-6.38-8-2.81-8-2.81-1.07-3.53-3.07-4.3-5-4.15,0-.06,0-.11,0-.17a8.11,8.11,0,0,0-1.73-4.82A8.09,8.09,0,0,0,113,19.65c.8-3.33-.14-6.36-3.56-5.85-7.26,1.06,5.09-10.92-9.8-10.2,0,0-2.91-5.45-5.45-2.91S87.6,4,88.33,9.78s-8,4.35,1.45,9.8c8.76,5.05,6.4,7.58,12.93,7.92,0,0,0,.05,0,.07a8.12,8.12,0,0,0,1.72,4.82,8,8,0,0,0,3.24,10.25c-1.84,1.52-3.19,3.2-2.79,4.73,1.1,4.17,7.14,38,7.14,38s18.11,35.84,10.35,55.69S63.27,250.5,54.07,272.3,33.72,338.65,26,361.41,4.66,410.33.79,419.54s7.75,2.9,7.75,9.69,3.39,10.17,9.69,10.17,11.63.48,17.92,5.33,12.11,9.2,19.86,7.75,37.3,6.77,39.72,12.58,26.63,20.27,37.77,11.15c9.71-7.95,30.41-10.14,35.6-10.57,5.19.43,25.9,2.62,35.61,10.57,11.14,9.12,35.35-5.33,37.77-11.15s32-14,39.72-12.58S295.75,449.56,302.05,444.71ZM226,21.85a9.16,9.16,0,0,0,7.07,5.56c0,.05,0,.1,0,.16a5.73,5.73,0,0,1-.77,2.75,8.17,8.17,0,0,0-6.19-2.91A8.06,8.06,0,0,0,221.53,29a5.92,5.92,0,0,1-.3-1.46A5.87,5.87,0,0,1,226,21.85Zm4.8,10.31a5.65,5.65,0,0,1-8.3-1,5.77,5.77,0,0,1,3.65-1.37A5.85,5.85,0,0,1,230.84,32.16ZM221,33a8.2,8.2,0,0,0,6.19,2.91,8.06,8.06,0,0,0,4.67-1.62,5.49,5.49,0,0,1,.3,1.46,6,6,0,0,1-3.58,5.45,47.71,47.71,0,0,0-5.95-3.32,11.86,11.86,0,0,0-2.22-1.31,5.55,5.55,0,0,1-.17-.81A5.81,5.81,0,0,1,221,33ZM105,27.57c0-.06,0-.11,0-.16a9.2,9.2,0,0,0,7.07-5.56A5.88,5.88,0,0,1,117,27.57a5.49,5.49,0,0,1-.3,1.46,7.82,7.82,0,0,0-10.85,1.29A5.88,5.88,0,0,1,105,27.57Zm10.61,3.57a5.65,5.65,0,0,1-8.3,1A5.85,5.85,0,0,1,112,29.77,5.75,5.75,0,0,1,115.65,31.14Zm2.14,5.41a12.53,12.53,0,0,0-2.22,1.31,47.2,47.2,0,0,0-5.94,3.32A6,6,0,0,1,106,35.73a5.92,5.92,0,0,1,.3-1.46A7.83,7.83,0,0,0,117.2,33a5.84,5.84,0,0,1,.76,2.76A4.67,4.67,0,0,1,117.79,36.55Z"/></g></g></svg>